{"title":"Taken 2 2012 CAM XviD-NOYPi [SilverTorrent]","uid":7704132,"size":912185475,"categoryP":"video","categoryS":"movies","magnet":"?xt=urn:btih:8bc156c86f03552c7e378d04d3b7accb44665104&amp;dn=Taken+2+2012+CAM+XviD-NOYPi+%5BSilverTorrent%5D&amp;tr=udp%3A%2F%2Ftracker.openbittorrent.com%3A80&amp;tr=udp%3A%2F%2Fopen.demonii.com%3A1337&amp;tr=udp%3A%2F%2Ftracker.coppersurfer.tk%3A6969&amp;tr=udp%3A%2F%2Fexodus.desync.com%3A6969","seeders":1,"leechers":0,"uploader":"AliBaloch","files":-1,"time":1349634421,"description":"SILVERTORRENT Clean Verified Torrents Download\n &lt;a href=&quot;\nhttp://silvertorrent.org/&quot; rel=&quot;nofollow&quot; target=&quot;_NEW&quot;&gt;\nhttp://silvertorrent.org/&lt;/a&gt;\n\n--------------------------------------------------\n &lt;a href=&quot;\nhttp://www.shotpix.com/images/64584251633393100348.jpg&quot; rel=&quot;nofollow&quot; target=&quot;_NEW&quot;&gt;\nhttp://www.shotpix.com/images/64584251633393100348.jpg&lt;/a&gt;\n\nGeneral\nComplete name : C:Users\\DocumentsTaken 2 2012 CAM XviD-NOYPi.avi\nFormat : AVI\nFormat/Info : Audio Video Interleave\nFile size : 862 MiB\nDuration : 1h 23mn\nOverall bit rate : 1 445 Kbps\nWriting application : VirtualDubMod 1.5.10.2 (build 2540/release)\nWriting library : VirtualDubMod build 2540/release\nVideo\nID : 0\nFormat : MPEG-4 Visual\nFormat profile : Advanced Simple@L5\nFormat settings, BVOP : 2\nFormat settings, QPel : No\nFormat settings, GMC : No warppoints\nFormat settings, Matrix : Default (H.263)\nMuxing mode : Packed bitstream\nCodec ID : XVID\nCodec ID/Hint : XviD\nDuration : 1h 23mn\nBit rate : 666 Kbps\nWidth : 640 pixels\nHeight : 300 pixels\nDisplay aspect ratio : 3:2\nOriginal display aspect ratio : 2.133\nFrame rate : 29.970 fps\nColor space : YUV\nChroma subsampling : 4:2:0\nBit depth : 8 bits\nScan type : Progressive\nCompression mode : Lossy\nBits/(Pixel*Frame) : 0.116\nStream size : 397 MiB (46%)\nWriting library : XviD 64\nAudio\nID : 1\nFormat : PCM\nFormat settings, Endianness : Little\nFormat settings, Sign : Signed\nCodec ID : 1\nDuration : 1h 23mn\nBit rate mode : Constant\nBit rate : 768 Kbps\nChannel(s) : 1 channel\nSampling rate : 48.0 KHz\nBit depth : 16 bits\nStream size : 458 MiB (53%)\nInterleave, duration : 33 ms (1.00 video frame)\nInterleave, preload duration : 500 ms\n\nIMDB: http://www.imdb.com/title/tt1397280\n\nScreen Shots: &lt;a href=&quot;\nhttp://www.shotpix.com/images/67309125264879962012.png&quot; rel=&quot;nofollow&quot; target=&quot;_NEW&quot;&gt;\nhttp://www.shotpix.com/images/67309125264879962012.png&lt;/a&gt; &lt;a href=&quot;\nhttp://www.shotpix.com/images/72349551830519508617.png&quot; rel=&quot;nofollow&quot; target=&quot;_NEW&quot;&gt;\nhttp://www.shotpix.com/images/72349551830519508617.png&lt;/a&gt; &lt;a href=&quot;\nhttp://www.shotpix.com/images/36205915023863226971.png&quot; rel=&quot;nofollow&quot; target=&quot;_NEW&quot;&gt;\nhttp://www.shotpix.com/images/36205915023863226971.png&lt;/a&gt; &lt;a href=&quot;\nhttp://www.shotpix.com/images/94193038167465220821.png&quot; rel=&quot;nofollow&quot; target=&quot;_NEW&quot;&gt;\nhttp://www.shotpix.com/images/94193038167465220821.png&lt;/a&gt; &lt;a href=&quot;\nhttp://www.secureboxes.net/?r=st&quot; rel=&quot;nofollow&quot; target=&quot;_NEW&quot;&gt;\nhttp://www.secureboxes.net/?r=st&lt;/a&gt;","torrent":{"xt":"urn:btih:8bc156c86f03552c7e378d04d3b7accb44665104","amp;dn":"Taken+2+2012+CAM+XviD-NOYPi+%5BSilverTorrent%5D","amp;tr":["udp%3A%2F%2Ftracker.openbittorrent.com%3A80","udp%3A%2F%2Fopen.demonii.com%3A1337","udp%3A%2F%2Ftracker.coppersurfer.tk%3A6969","udp%3A%2F%2Fexodus.desync.com%3A6969"],"infoHash":"8bc156c86f03552c7e378d04d3b7accb44665104","infoHashBuffer":{"type":"Buffer","data":[139,193,86,200,111,3,85,44,126,55,141,4,211,183,172,203,68,102,81,4]},"announce":[],"urlList":[]}}